<?xml version="1.0" encoding="iso-8859-1"?>
<!-- Generator: Adobe Illustrator 19.0.0, SVG Export Plug-In . SVG Version: 6.00 Build 0)  -->
<svg version="1.1" id="Capa_1" xmlns="http://www.w3.org/2000/svg" xmlns:xlink="http://www.w3.org/1999/xlink" x="0px" y="0px"
	 viewBox="0 0 512 512" style="enable-background:new 0 0 512 512;" xml:space="preserve">
<g>
	<g>
		<path d="M0,45v422h512V45H0z M482,437H30V75h452V437z"/>
	</g>
</g>
<g>
	<g>
		<path d="M256,165c-24.813,0-45,20.187-45,45s20.187,45,45,45s45-20.187,45-45S280.813,165,256,165z M256,225
			c-8.271,0-15-6.729-15-15s6.729-15,15-15s15,6.729,15,15S264.271,225,256,225z"/>
	</g>
</g>
<g>
	<g>
		<path d="M60,105v302h392V105H60z M422,377H90v-36.985l75.5-50.472l90.5,60.5l90.5-60.5l75.5,50.472V377z M422,303.93l-75.5-50.473
			l-90.5,60.5l-90.5-60.5L90,303.93V135h332V303.93z"/>
	</g>
</g>
<g>
</g>
<g>
</g>
<g>
</g>
<g>
</g>
<g>
</g>
<g>
</g>
<g>
</g>
<g>
</g>
<g>
</g>
<g>
</g>
<g>
</g>
<g>
</g>
<g>
</g>
<g>
</g>
<g>
</g>
</svg>
