<svg height="512pt" viewBox="-30 0 512 512" width="512pt" xmlns="http://www.w3.org/2000/svg"><path d="m376.285156 195.105469-67.09375-45.109375h6.800782c8.285156 0 15-6.714844 15-15 0-8.28125-6.714844-15-15-15h-20.832032c23.058594-29.730469 35.832032-66.445313 35.832032-104.851563v-.144531c0-8.285156-6.714844-15-15-15h-179.996094c-8.28125 0-15 6.714844-15 15v.144531c0 38.402344 12.773437 75.109375 35.839844 104.851563h-20.839844c-8.28125 0-15 6.71875-15 15 0 8.285156 6.71875 15 15 15h6.804687l-67.09375 45.109375c-47.40625 31.871093-75.707031 85.003906-75.707031 142.125 0 41.527343 15.039062 81.613281 42.347656 112.875 27.363282 31.324219 65.089844 51.523437 106.222656 56.878906 25.6875 3.34375 51.558594 5.015625 77.425782 5.015625 25.867187 0 51.738281-1.671875 77.425781-5.015625 41.132813-5.355469 78.859375-25.554687 106.222656-56.878906 27.308594-31.261719 42.347657-71.347657 42.347657-112.875 0-57.121094-28.300782-110.253907-75.707032-142.125zm-76.066406-165.105469c-3.628906 34.574219-19.84375 66.574219-45.820312 89.996094h-56.800782c-25.992187-23.445313-42.195312-55.4375-45.824218-89.996094zm-.667969 447.234375c-48.808593 6.351563-98.300781 6.355469-147.109375 0-69.804687-9.082031-122.441406-69.273437-122.441406-140.003906 0-47.117188 23.34375-90.9375 62.441406-117.226563l104.128906-70.007812h58.851563l104.125 70.007812c39.101563 26.289063 62.445313 70.109375 62.445313 117.226563 0 70.730469-52.640626 130.921875-122.441407 140.003906zm0 0"/><path d="m225.996094 270.996094h30c8.28125 0 15-6.71875 15-15 0-8.285156-6.71875-15-15-15h-15v-15c0-8.285156-6.714844-15-15-15s-15 6.714844-15 15v17.578125c-17.457032 6.191406-30 22.867187-30 42.421875 0 24.8125 20.1875 44.996094 45 44.996094 8.269531 0 15 6.730468 15 15 0 8.273437-6.730469 15-15 15h-30c-8.285156 0-15 6.714843-15 15 0 8.285156 6.714844 15 15 15h15v15c0 8.285156 6.714844 15 15 15s15-6.714844 15-15v-17.578126c17.457031-6.195312 30-22.867187 30-42.421874 0-24.8125-20.1875-45-45-45-8.269532 0-15-6.726563-15-14.996094 0-8.273438 6.726562-15 15-15zm0 0"/></svg>