<svg height="512" viewBox="0 0 16 16" width="512" xmlns="http://www.w3.org/2000/svg"><path d="m7 14c-.12793 0-.255859-.0488281-.353516-.146484-.364258-.364258-.728516-.72168-1.08838-1.07471-2.8584-2.80469-5.55811-5.4541-5.55811-9.02881 0-1.30859 1.28809-3.75 3.75-3.75 1.28369 0 2.45166.625977 3.25 1.70996.79834-1.08398 1.96631-1.70996 3.25-1.70996 2.46191 0 3.75 2.44141 3.75 3.75 0 3.57471-2.69971 6.22412-5.55811 9.02881-.359863.353027-.724121.710449-1.08838 1.07471-.0976562.0976563-.225586.146484-.353516.146484zm-3.25-13c-1.9043 0-2.75 1.99268-2.75 2.75 0 3.15479 2.43701 5.54639 5.25879 8.31494.245117.241211.493164.483887.741211.72998.248047-.246094.496094-.48877.741211-.72998 2.82178-2.76855 5.25879-5.16016 5.25879-8.31494 0-.757324-.845703-2.75-2.75-2.75-1.67676 0-2.51855 1.32178-2.80273 1.89014-.169922.338867-.724609.338867-.894531 0-.28418-.568359-1.12598-1.89014-2.80273-1.89014z" transform="translate(1 1)"/></svg>